# xmcd CD database file
#
# Track frame offsets:
#	150
#	10242
#	25700
#	38225
#	50519
#	65336
#	79494
#	86490
#	104324
#	114223
#	123587
#
# Disc length: 1675 seconds
#
# Revision: 0
# Processed by: cddbd v1.5.2PL0 Copyright (c) Steve Scherf et al.
# Submitted via: CDex 1.70beta2
#
DISCID=8506890b
DTITLE=Dirty Dishes - Cdn.  - Done Dirt Cheap
DYEAR=1900
DGENRE=Country
TTITLE0=Steppin Too
TTITLE1=Freight Train
TTITLE2=Comin' To Grips 
TTITLE3=Someone I Used To Know
TTITLE4=What Could I Do 
TTITLE5=Grass Is Blue
TTITLE6=Couldn't Believe It Was True
TTITLE7=That's Alright
TTITLE8=I'll Fly Away
TTITLE9=Frankie and Johnny
TTITLE10=Dirty Dishin'
EXTD=
EXTT0=
EXTT1=
EXTT2=
EXTT3=
EXTT4=
EXTT5=
EXTT6=
EXTT7=
EXTT8=
EXTT9=
EXTT10=
PLAYORDER=
